<svg xmlns="http://www.w3.org/2000/svg" viewBox="0 0 438.3 452.95"><defs><style>.cls-1{font-size:180px;font-family:LemonMilk, Lemon/Milk;}</style></defs><title>me_logo_black</title><g id="Layer_2" data-name="Layer 2"><g id="Layer_1-2" data-name="Layer 1"><path d="M1.43,228.47c.14,46.25,12,90.77,38.3,129.17a219,219,0,0,0,399.54-113.4c1.1-23.32.42-47-4.32-69.9a218.13,218.13,0,0,0-24.25-64A219,219,0,0,0,3.25,191.19a270.41,270.41,0,0,0-1.82,33.3c0,1,.54,9,.05,9.22a51.91,51.91,0,0,0,.09-5.24c.28-88.42,62-171,145.16-200.76a219.08,219.08,0,0,1,291.65,184c.32,3.14.56,6.28.74,9.42.08,1.4.15,2.79.2,4.19,0,1.15.1,6.58.1,1.2s-.06.05-.1,1.2c-.05,1.4-.12,2.79-.2,4.19q-.3,5.4-.89,10.79A217.7,217.7,0,0,1,406,335.51a219,219,0,0,1-229.43,98.05C89.74,415.87,20.41,344.8,4.89,257.6a205.11,205.11,0,0,1-3.32-33.11c0-1,0-5.15-.09-5.24C2.18,219.82,1.42,227.61,1.43,228.47Z" transform="translate(-1.43)"/><rect x="61.19" y="262.69" width="249" height="34" rx="10.08" ry="10.08"/><path d="M178.17,210.47l96.44-132.2V279.69h-39V198.14l-56.94,78.37-57.06-78.37v81.55h-40V78.27Z" transform="translate(-1.43)"/><path d="M59.94,325.55l0,0A7.84,7.84,0,0,1,52.39,318a13.74,13.74,0,0,1,3.83-9.77A11.4,11.4,0,0,1,61,305.27c1.12-.34,4.65.2,5.06.76s-.35,1.09-2,2-2.19,2-1.75,3.52a6.92,6.92,0,0,1,5.1,6.58A7.51,7.51,0,0,1,59.94,325.55Z" transform="translate(-1.43)"/><path d="M89.21,351.57c3.1,0,6.53-2.58,6.53-5.68,0-5.1-6.85-5.81-10.71-7.15-6.82-2.32-12.84-7.92-12.84-15.53a17.05,17.05,0,0,1,33.94-2.35L95,323.21a5.67,5.67,0,0,0-11.34,0c0,5,6.38,6.37,10.26,7.52,7,2,13.27,7.41,13.27,15.19,0,9.42-8.46,17-17.86,17-8.65,0-16.46-6.33-17.73-14.66L82.72,346c0,3.12,3.39,5.66,6.54,5.66Z" transform="translate(-1.43)"/><path d="M148.69,306.69v11.13H135v44.75H123.7V317.82H109.94V306.69Z" transform="translate(-1.43)"/><path d="M187.25,306.55v11.2H164.78V329h16.85v11.2H164.78v11.27h22.47v11.16h-33.7V306.55Z" transform="translate(-1.43)"/><path d="M215.5,305.54l25.52,57H228.85l-3.78-8.49H205.93l-3.78,8.49H190Zm5.13,38.62-5.1-11.82-5.16,11.82Z" transform="translate(-1.43)"/><path d="M257.07,306.69v24.72l14.31-24.72h13l-16.54,28.39L287,362.57H273.36l-16.29-23.43v23.43h-11.2V306.69Z" transform="translate(-1.43)"/><text class="cls-1" transform="translate(280.19 348.37)">e</text></g></g></svg>
