<svg xmlns="http://www.w3.org/2000/svg" viewBox="0 0 702.25 725.34"><defs><style>.cls-1,.cls-3{fill:#262626;}.cls-2{fill:#c1272d;}.cls-3{font-size:288.24px;font-family:LemonMilk, Lemon/Milk;}</style></defs><title>me_logo</title><g id="Layer_2" data-name="Layer 2"><g id="Layer_1-2" data-name="Layer 1"><path class="cls-1" d="M2.29,365.87c.07,38.43,4.42,76.22,15.85,113a350.76,350.76,0,0,0,685.07-83.58c2.39-40.47,1-81.81-7.85-121.47a349.8,349.8,0,0,0-39.44-100.18A350.78,350.78,0,0,0,5.65,302.74c-2.57,18.84-3.33,37.74-3.36,56.74,0,4.76-.7,10.08.08,14.78.21,1.24.1-1.37.09-1.21.11-2.39,0-4.79.06-7.18,0,4.11,0-1.05,0-1.48,0-.93.06-1.87.09-2.8q.12-3.49.32-7,.4-7.43,1.14-14.82,1.35-13.69,3.77-27.24A348.86,348.86,0,0,1,69.76,168,350.74,350.74,0,0,1,702.08,339.78q.74,7.39,1.14,14.82.19,3.5.32,7l.09,2.8c0,1,0,2,.06,3V358c-.65,9.68-.75,19.34-1.75,29a348.4,348.4,0,0,1-51.49,149.73A350.79,350.79,0,0,1,7.54,410.79q-2.24-12.89-3.49-25.9Q3.38,377.83,3,370.75q-.19-3.48-.32-7L2.57,361c0-.43-.06-5.59,0-1.48,0-2.38,0-4.8-.06-7.17,0-1,.21-1.8-.09-1.22-.6,1.19-.06,4.35-.07,5.52C2.28,359.7,2.28,362.78,2.29,365.87Z" transform="translate(-2)"/><rect class="cls-1" x="98.27" y="420.66" width="398.74" height="54.45" rx="16.14" ry="16.14"/><path class="cls-1" d="M285.32,337l154.43-211.7V447.88H377.3V317.3L286.12,442.8,194.75,317.3V447.88H130.69V125.34Z" transform="translate(-2)"/><path class="cls-2" d="M96,521.32l.06,0a12.56,12.56,0,0,1-12.16-12.21A22.07,22.07,0,0,1,90,493.5a18.42,18.42,0,0,1,7.58-4.66c1.8-.54,7.45.32,8.11,1.22.48.71-.57,1.75-3.14,3.14s-3.5,3.27-2.8,5.63c4.3,1.44,8.16,5,8.16,10.55A12,12,0,0,1,96,521.32Z" transform="translate(-2)"/><path class="cls-2" d="M142.86,563c5,0,10.45-4.12,10.45-9.09,0-8.17-11-9.31-17.15-11.45-10.92-3.72-20.55-12.68-20.55-24.87A27.3,27.3,0,0,1,170,513.81l-17.86,3.77a9.08,9.08,0,0,0-18.16.06c0,8.06,10.21,10.2,16.42,12.05,11.29,3.25,21.25,11.86,21.25,24.32,0,15.09-13.54,27.28-28.6,27.28-13.85,0-26.36-10.15-28.4-23.48l17.86-3.8c0,5,5.43,9.06,10.48,9.06Z" transform="translate(-2)"/><path class="cls-2" d="M238.11,491.12v17.82h-22v71.67h-18V508.94h-22V491.12Z" transform="translate(-2)"/><path class="cls-2" d="M299.85,490.9v17.93h-36v18h27V544.8h-27v18h36v17.88h-54V490.9Z" transform="translate(-2)"/><path class="cls-2" d="M345.09,489.28,386,580.61H366.47L360.41,567H329.77l-6,13.6H304.29Zm8.22,61.85-8.16-18.93-8.27,18.93Z" transform="translate(-2)"/><path class="cls-2" d="M411.66,491.12V530.7l22.92-39.58h20.77l-26.48,45.46,30.75,44H437.75l-26.09-37.53v37.53H393.72V491.12Z" transform="translate(-2)"/><text class="cls-3" transform="translate(448.97 557.86)">e</text></g></g></svg>
